<svg fill="#FFFFFF" xmlns="http://www.w3.org/2000/svg"  viewBox="0 0 24 24" width="50px" height="50px"><path d="M12,2C6.486,2,2,6.486,2,12s4.486,10,10,10s10-4.486,10-10S17.514,2,12,2z M12.966,16.526c-0.818,0-1.588-0.425-1.847-0.926	c0,0-0.407,1.539-0.505,1.919c-0.183,0.698-0.671,1.579-1.002,2.115l-0.55-0.197c-0.072-0.64-0.139-1.619,0.027-2.317	c0.148-0.626,0.948-4.007,0.948-4.007s-0.242-0.483-0.242-1.199c0-1.123,0.648-1.959,1.458-1.959c0.689,0,1.02,0.514,1.02,1.136	c0,0.693-0.438,1.726-0.666,2.683c-0.192,0.805,0.403,1.458,1.194,1.458c1.431,0,2.536-1.512,2.536-3.694	c0-1.928-1.391-3.278-3.372-3.278c-2.294,0-3.641,1.722-3.641,3.502c0,0.693,0.268,1.436,0.599,1.838	c0.067,0.081,0.076,0.152,0.058,0.233c-0.063,0.255-0.197,0.801-0.228,0.917c-0.031,0.148-0.116,0.179-0.268,0.107	c-1.006-0.47-1.637-1.945-1.637-3.126c0-2.545,1.847-4.884,5.331-4.884c2.8,0,4.973,1.995,4.973,4.66	C17.152,14.29,15.399,16.526,12.966,16.526z"/></svg>